<svg xmlns="http://www.w3.org/2000/svg" width="512" height="512" viewBox="0 0 585.918 585.918"><g fill="#6f6f6f"><path d="M62.308 274.521c-3.226.056-5.323.398-6.554.737v46.331c1.231.337 3.237.378 5.042.409 13.263.347 22.05-7.621 22.05-24.87.097-14.996-7.921-22.799-20.538-22.607z"/><path d="M357.396 535.33c.776.047 1.542.109 2.329.109h177.39c20.75 0 37.627-16.883 37.627-37.627V86.597c0-20.743-16.877-37.628-37.627-37.628h-177.39c-.781 0-1.553.077-2.329.113V0L11.176 46.206v492.311l346.22 47.401V535.33zm0-297.377h187.009V365.17H357.396V237.953zm125.954-10.751H357.396v-50.308H483.35v50.308zm53.765 286.747h-177.39c-.792 0-1.563-.127-2.329-.243V375.921H553.24v121.901c0 8.893-7.232 16.127-16.125 16.127zM359.726 70.476h177.39c8.893 0 16.125 7.236 16.125 16.126v140.6h-59.14v-61.059H357.396V70.711c.766-.112 1.533-.235 2.33-.235zM87.786 325.94c-7.003 6.163-17.512 8.861-30.129 8.51-7.455-.199-12.681-.861-16.21-1.479v-68.836c5.207-1.058 12.05-1.746 19.349-1.918 12.284-.31 20.379 1.953 26.783 7.076 6.961 5.489 11.368 14.416 11.368 27.304 0 13.978-4.715 23.545-11.161 29.343zm51.067 11.219c-20.943-.578-32.924-17.365-32.924-38.269 0-22 13.217-38.77 34.113-39.292 22.352-.559 34.864 16.819 34.864 38.059-.001 25.224-14.815 40.105-36.053 39.502zm87.42-12.525c5.499.104 11.664-.981 15.31-2.347l2.8 14.263c-3.415 1.575-11.037 3.149-20.851 2.877-27.223-.767-40.879-17.791-40.879-39.821 0-26.39 18.717-41.544 42.675-42.141 9.47-.236 16.743 1.488 20.044 3.092l-3.79 14.507c-3.759-1.494-8.956-2.848-15.433-2.745-14.311.221-25.227 8.863-25.227 26.289.002 15.68 9.291 25.72 25.351 26.026zm76.172 15.779l-7.98-15.265c-3.251-5.838-5.322-10.164-7.766-14.981h-.265c-1.806 4.761-3.986 9.019-6.664 14.719l-7.129 14.704-21.733-.594 24.4-40.866-23.539-39.999 21.887-.527 7.514 14.858a255.465 255.465 0 0 1 6.554 13.648h.252c2.082-5.293 3.758-9.005 5.961-13.836l7.457-15.341 23.16-.56-25.261 41.289 26.614 43.382-23.462-.631z"/><path d="M139.605 273.097c-10.875.171-17.142 11.061-17.142 25.495 0 14.53 6.478 24.897 17.25 25.103 11.047.21 17.438-10.715 17.438-25.497 0-13.651-6.288-25.279-17.546-25.101zM386.855 253.628a7.168 7.168 0 0 1 7.17 7.165c0 3.955-3.212 7.165-7.17 7.165s-7.16-3.21-7.16-7.165a7.16 7.16 0 0 1 7.16-7.165zM405.019 258.105h109.304v5.375H405.019zM386.855 279.613a7.168 7.168 0 0 1 7.17 7.165c0 3.955-3.212 7.168-7.17 7.168s-7.16-3.213-7.16-7.168a7.16 7.16 0 0 1 7.16-7.165zM405.019 284.085h109.304v5.375H405.019zM386.855 307.562c3.958 0 7.17 3.212 7.17 7.165 0 3.958-3.212 7.167-7.17 7.167s-7.16-3.209-7.16-7.167a7.163 7.163 0 0 1 7.16-7.165zM405.019 312.04h109.304v5.375H405.019zM386.855 333.993a7.169 7.169 0 0 1 7.17 7.165c0 3.958-3.212 7.166-7.17 7.166s-7.16-3.208-7.16-7.166a7.16 7.16 0 0 1 7.16-7.165zM405.019 338.466h109.304v5.375H405.019z"/></g></svg>