<?xml version="1.0" encoding="utf-8"?>
<!-- Generator: Adobe Illustrator 17.1.0, SVG Export Plug-In . SVG Version: 6.00 Build 0)  -->
<!DOCTYPE svg PUBLIC "-//W3C//DTD SVG 1.1//EN" "http://www.w3.org/Graphics/SVG/1.1/DTD/svg11.dtd">
<svg version="1.1" id="Layer_1" xmlns="http://www.w3.org/2000/svg" xmlns:xlink="http://www.w3.org/1999/xlink" x="0px" y="0px"
	 viewBox="0 0 512 512" enable-background="new 0 0 512 512" xml:space="preserve">
<g>
	<path fill="#FFFFFF" d="M329.7,449.9H38.8V62.1h290.9v66.1L368.4,85V62.8c0-21.8-17.7-39.5-39.5-39.5H39.5C17.7,23.3,0,41,0,62.8
		c0,0,0,0,0,0v386.4c0,21.8,17.7,39.5,39.5,39.5H329c21.8,0,39.5-17.7,39.5-39.5V322l-38.8,43.2L329.7,449.9L329.7,449.9z"/>
	<path fill="#FFFFFF" d="M296.8,133.2c0-10.7-8.7-19.4-19.4-19.4H90.8c-10.7,0-19.4,8.7-19.4,19.4c0,10.7,8.7,19.4,19.4,19.4
		c0,0,0,0,0,0h186.5C288.1,152.6,296.8,143.9,296.8,133.2L296.8,133.2z M270.1,195.1H90.8c-10.7,0.3-19.1,9.2-18.8,19.9
		c0.3,10.3,8.6,18.5,18.8,18.8h144.4L270.1,195.1z M197.6,275.4H90.8c-10.7,0-19.4,8.7-19.4,19.4c0,10.7,8.7,19.4,19.4,19.4h84.8
		L197.6,275.4z M71.5,376c0,10.7,8.7,19.4,19.4,19.4h62.1c0.2-2.8,0.6-4.3,1.3-6.4l9.3-32.4H90.8C80.1,356.7,71.5,365.3,71.5,376z
		 M362.5,135.1L227.1,286l-10.5,11.7l74.6,66.9l10.5-11.7l135.4-150.9l12.2-13.6l-74.5-66.9L362.5,135.1L362.5,135.1z M356.1,203.2
		l-88.8,99c-1.1,1.3-2.7,2-4.3,2.1c-1.7,0.1-3.3-0.5-4.5-1.6l-4.4-3.9c-2.6-2.3-2.8-6.3-0.5-8.9l88.8-99c2.3-2.6,6.2-2.8,8.8-0.5
		c0,0,0,0,0,0l4.4,4C358.2,196.7,358.4,200.6,356.1,203.2C356.1,203.2,356.1,203.2,356.1,203.2L356.1,203.2z M381.9,156.2l4.4,3.9
		c2.6,2.3,2.8,6.3,0.5,8.9l-1.1,1.3l-6.3,7.1l-0.3,0.3c-1.1,1.3-2.7,2-4.3,2.1c-1.7,0.1-3.3-0.5-4.5-1.6l-4.4-3.9
		c-2.6-2.3-2.8-6.3-0.5-8.8c0,0,0,0,0,0l7.7-8.6C375.3,154.1,379.3,153.9,381.9,156.2L381.9,156.2z M387.6,107.2l-5.6,6.3l74.5,66.9
		l5.6-6.3l12.7-14.1L400.3,93L387.6,107.2z M512,108.9c-0.3-5.7-2.9-11.1-7.2-15l-42.2-37.9c-8.9-8-22.6-7.2-30.6,1.7L407,85.5
		l74.5,66.8l24.9-27.8C510.3,120.3,512.3,114.7,512,108.9L512,108.9z M480,124.5L434.9,84l13-14.5L493,110L480,124.5z M185.3,407.7
		c3.1,2.8,7.5,3.5,11.3,1.9l85.7-35.1l-74.5-66.8l-25.6,89C181,400.6,182.2,404.9,185.3,407.7L185.3,407.7z M214.6,331.4l43.3,38.9
		l-33.7,13.8l-19.7-17.7L214.6,331.4z"/>
</g>
</svg>
