<svg xmlns="http://www.w3.org/2000/svg" width="112.593" height="37.609"><path d="M17.575 0c-.895 0-1.787.047-2.373.137-3.562.547-6.653 1.99-9.396 4.381C2.697 7.231.638 11.118.076 15.35c-.117.876-.095 3.066.038 3.999.39 2.74 1.426 5.223 3.03 7.27 2.84 3.624 8.198 5.958 13.69 5.968 1.711 0 2.335-.074 4.044-.493 1.458-.358 2.249-.465 3.402-.465 3.452 0 6.686 1.168 9.205 3.326.78.67 1.657 1.659 1.977 2.226.237.419.465.56.46.29-.002-.253-.44-1.156-.87-1.81-.823-1.248-1.87-2.281-3.288-3.244-1.958-1.33-3.183-1.755-6.541-2.265-1.92-.29-2.506-.45-3.49-.93-1.55-.756-2.47-1.518-3.265-2.702l-.351-.52v.662c0 .583.118 1.321.274 1.723.046.12.003.137-.362.137-1.14 0-3.139-.465-4.662-1.083-3.157-1.28-5.598-3.447-7.03-6.247-1.798-3.52-2.137-7.54-.925-11.017.857-2.459 2.412-4.398 4.503-5.628 3.164-1.86 7.64-1.563 11.429.76 4.643 2.846 7.603 8.187 7.402 13.358-.025.62-.085 1.336-.132 1.592-.13.701-.32 1.463-.383 1.531-.031.033-.258-.06-.505-.207a4.753 4.753 0 0 0-3.046-.624l-.46.066.63.055c2.014.182 4.1 1.925 4.816 4.026.107.316.192.642.192.722 0 .238.12.103.783-.886 3.738-5.583 3.896-12.507.406-17.844C28.56 3.295 24.687.87 19.94.137 19.361.048 18.47 0 17.574.001zM28.34 25.261c-.16 0-.192.038-.192.23 0 .32.285 1.05.52 1.329.246.291.412.195.412-.235 0-.61-.397-1.324-.74-1.324zm-3.04 1.127c-.609 0-.941.59-.696 1.23.142.373.272.52.63.706.375.196.64.155.937-.142.203-.204.268-.33.268-.547 0-.646-.55-1.247-1.14-1.247z" fill="#f49719"/><g fill="#1e4592"><path d="M53.628 20.073c-.568.009-1.136.1-1.588.253-2.294.773-3.61 2.932-3.61 5.884 0 1.916.487 3.376 1.552 4.512.736.784 1.66 1.28 2.78 1.48.701.126 1.77.023 2.527-.217 2.43-.77 3.897-3.42 3.61-6.533-.095-1.019-.259-1.677-.686-2.563-.64-1.325-1.66-2.22-2.997-2.636-.442-.137-1.02-.19-1.588-.18zm.036 1.408c.628 0 .763.035 1.155.252 1.004.557 1.567 1.612 1.77 3.285.165 1.375-.006 3.038-.434 3.971-.248.542-.798 1.15-1.3 1.444-.297.174-.508.227-1.046.253-.625.03-.71-.01-1.192-.253-.864-.437-1.433-1.263-1.732-2.563-.214-.926-.192-2.9.036-3.754.32-1.2.787-1.939 1.588-2.383.392-.217.527-.252 1.155-.252zM84.932 32.094c-.256-.13-.337-.431-.268-.995l.054-.442.514-.042c.736-.06.986-.304 1.25-1.223.118-.414.146-1.117.187-4.738l.044-4.27h7.466c.045 3.869 0 7.74 0 11.609-.68-.003-1.36 0-2.04 0-.014-3.377.014-6.753 0-10.13h-3.438l-.05 3.48c-.051 3.67-.092 4.114-.48 5.146-.26.695-.96 1.394-1.579 1.578-.53.157-1.376.17-1.66.027zM60.574 31.993V20.384H62.7v10.172h3.712l.007-10.172 2.127.025.018 10.147h3.768V20.384h2.21v11.609H60.575zM95.97 31.993V20.384h6.45v1.398h-4.289v3.402h3.727v1.464H98.13l.001 1.944v1.964h4.289v1.437zM44.898 2.694a5.86 5.86 0 0 0-1.336.144c-1.461.372-2.6 1.281-3.249 2.635-.572 1.194-.685 1.701-.686 3.358 0 1.225.018 1.495.18 2.057.598 2.06 1.935 3.43 3.791 3.863.29.067.528.138.542.18.079.238.675 1.097.938 1.372.893.93 2.488 1.74 4.115 2.094.294.063.686.14.903.144.334.006.424-.037.541-.217.209-.317.059-.606-.397-.721-1.875-.474-3.174-1.385-3.682-2.6l-.144-.288.65-.325c.92-.455 1.872-1.383 2.346-2.347.8-1.626.976-3.82.433-5.595-.56-1.829-1.908-3.167-3.61-3.61-.319-.083-.828-.144-1.335-.144zm0 1.372c.583 0 .692.036 1.083.252.78.432 1.295 1.191 1.624 2.383.236.856.256 3.235.036 4.115-.307 1.228-.87 2.023-1.732 2.455-.412.205-.602.258-1.011.252-.836-.011-1.269-.206-1.877-.866-.76-.824-1.12-2.07-1.12-3.935 0-2.406.622-3.804 1.914-4.44.335-.165.543-.217 1.083-.216zM59.286 14.593s-3.36-11.558-3.278-11.641c.78-.015 1.361.009 2.188 0l2.063 7.77 2.417-7.77c.31-.034.618-.024.929 0l1.23 3.93c.67 2.143 1.236 3.897 1.263 3.898.027 0 .473-1.677.992-3.729s1.066-4.1 1.066-4.1h1.74L66.63 14.594h-1.234l-1.22-3.62c-1.052-3.119-1.338-3.894-1.338-3.674 0 .08-2.27 7.294-2.27 7.294zM40.157 31.963c.03-3.853-.025-11.579-.025-11.579h2.159c.027 1.628-.02 3.273.009 4.9l3.64-4.9h1.956l-3.637 5.031 4.341 6.578h-2.585s-.919-1.35-1.844-2.795c-.925-1.445-1.734-2.681-1.797-2.748l-.023 5.534zM104.15 31.963c.029-3.853-.026-11.579-.026-11.579h2.159c.028 1.628-.019 3.273.009 4.9l3.64-4.9h1.956l-3.637 5.031 4.342 6.578h-2.585s-.92-1.35-1.844-2.795c-.925-1.445-1.734-2.681-1.798-2.748l-.022 5.534zM52.037 2.952h2.232v11.641h-2.232zM71.643 2.952h2.232v11.641h-2.232z"/><path d="M95.97 31.993V20.384h6.45v1.398h-4.289v3.402h3.727v1.464H98.13l.001 1.944v1.964h4.289v1.437zM76.89 31.993V20.384h6.45v1.398h-4.29v3.402h3.726v1.464H79.05l.001 1.944-.001 1.964h4.29v1.437z"/></g></svg>