<svg xmlns="http://www.w3.org/2000/svg" version="1" width="1135" height="714"><g fill-rule="evenodd"><path fill="#1b1d74" d="M47 37h1041v170H47z"/><path d="M0 0v714h1135V0H0zm13 13h1109v689H13V13z" fill="#1b1d74"/><path fill="#e59703" d="M47 507h1041v170H47z"/><path d="M226.422 245.456l.055-7.052 107.04 2.038 1.901 150.012 88.118-149.02 52.98.083-140.998 233.962H275.45s-3.164-119.42-4.902-178.247c-1.476-49.962-24.446-45.606-44.126-51.776zM421.645 475.518h60.85l76.122-236.067h-60.269l-76.703 236.067zM721.11 292.451s-32.24-20.07-50.036-20.07c-11.436.001-31.953 10.315-31.953 28.117 0 37.155 68.393 35.485 68.393 95.907 0 28.357-15.71 82.127-99.052 82.127-56.398 0-79.49-24.677-79.49-24.677l19.467-35.346s24.55 18.035 58.173 18.035c24.864 0 41.064-9.738 41.064-24.601 0-30.31-74.174-43.284-74.174-95.815 0-42.499 39.22-82.59 99.052-82.59 49.05 0 71.954 28.486 71.954 28.486l-23.399 30.427zM897.5 241.438l-67.969.03L702.47 475.5h54.281l23.813-47.031h68.843l.094 47.031h58.063L897.5 241.437zm-57 65.218l7 83.813-51.031.031 44.031-83.844z" fill="#1b1d74"/></g></svg>