<svg xmlns="http://www.w3.org/2000/svg" viewBox="0 0 528.49335 132.14667" height="132.147" width="528.493"><g fill="#1d70bf"><path d="M461.927-.003c10.374 0 20.2 2.415 28.949 6.704a58.08 58.08 0 0 1 4.12 2.162l-6.081 5.445-9.139-9.45-15.424 13.757-9.161-9.998-28.732 25.899 18.418 20.3-7.237 6.366 18.143 20.33-7.198 6.352 25.927 28.858 15.39-14.167 13.303 15.181a70.463 70.463 0 0 1-8.704 5.783 65.566 65.566 0 0 1-32.574 8.628c-36.394 0-66.074-29.685-66.074-66.073 0-36.396 29.68-66.077 66.074-66.077" fill-rule="evenodd"/><path d="M449.884 61.896l15.712-14.15 14.15 15.717-15.713 14.145-14.149-15.712M461.057 89.046L476.77 74.9l14.15 15.713-15.712 14.15-14.15-15.717M438.643 35.064l15.712-14.144 14.144 15.711-15.712 14.146-14.144-15.713M467.473 27.45l11.784-10.608 10.61 11.784-11.784 10.612-10.61-11.787M488.412 76.049L500.2 65.436l10.61 11.787-11.785 10.61-10.613-11.784M498.779 99.85l11.78-10.612 10.613 11.784-11.784 10.61-10.61-11.781M503.525 45.298l7.855-7.073 7.073 7.856-7.853 7.072-7.075-7.855M493.487 21.956l7.857-7.072 7.072 7.855-7.856 7.073-7.073-7.856M513.57 68.639l7.854-7.073 7.073 7.855-7.854 7.073-7.074-7.855M478.336 51.15l11.784-10.614 10.61 11.784-11.78 10.609-10.614-11.78" fill-rule="evenodd"/><path d="M30.835 54.682h-.528l-9.953 37.62h-8.14L0 38.85h8.443l8.444 39.883h.528l9.8-39.883h6.71l10.48 39.883h.527L52.62 38.85h8.822L49.228 92.303h-8.142L30.835 54.682M94.849 84.009v5.729c-3.392 1.962-7.916 3.471-13.344 3.471-12.664 0-17.866-7.841-17.866-19.755 0-11.458 5.805-19.752 17.113-19.752 9.423 0 15.228 6.11 15.228 18.397v2.787H71.404c0 9.046 3.694 13.043 11.46 13.043 4.07 0 7.839-1.432 11.985-3.92zM71.556 69.837h17.261c-.374-7.917-4.22-11.082-8.292-11.082-4.6 0-8.142 3.544-8.97 11.082M110.678 56.494c2.262-1.206 6.105-2.792 10.177-2.792 9.348 0 14.398 6.486 14.398 18.55 0 14.095-6.782 20.957-17.713 20.957-3.998 0-10.18-1.282-14.703-3.698V36.892l7.84-1.885v21.487zm-.075 30.23c2.412 1.055 5.051 1.205 6.937 1.205 5.579 0 9.8-3.467 9.8-15.677 0-9.577-3.47-12.667-8.52-12.667-3.016 0-5.2.83-8.217 2.487v24.651M169.555 80.994h.378l16.132-42.144h9.35v53.453h-8.142v-38.75h-.68l-15.378 38.75h-4.824l-15.382-37.844h-.677v37.844h-6.784V38.85h9.121l16.886 42.144M203.707 73.454c0-13.193 7.238-19.752 17.188-19.752 9.953 0 17.19 6.559 17.19 19.752 0 12.893-6.861 19.755-17.19 19.755-10.328 0-17.188-6.862-17.188-19.755zm26.461 0c0-10.176-4.147-14.472-9.273-14.472-4.976 0-9.272 4.296-9.272 14.472 0 10.332 3.921 14.475 9.272 14.475 5.353 0 9.273-4.143 9.273-14.475M245.247 59.282c3.392-2.036 10.554-5.58 19.221-5.58 9.05 0 12.44 3.544 12.44 11.308v27.293h-7.84V66.746c0-5.956-2.937-7.011-6.781-7.011-3.018 0-6.863 1.359-9.2 2.714v29.854h-7.84V59.282M315.128 84.009v5.729c-3.39 1.962-7.913 3.471-13.343 3.471-12.662 0-17.866-7.841-17.866-19.755 0-11.458 5.806-19.752 17.114-19.752 9.426 0 15.231 6.11 15.231 18.397v2.787h-24.576c0 9.046 3.692 13.043 11.457 13.043 4.07 0 7.839-1.432 11.983-3.92zm-23.292-14.172h17.263c-.375-7.917-4.223-11.082-8.292-11.082-4.602 0-8.14 3.544-8.971 11.082M345.588 54.985h8.067l-13.646 37.694c-3.77 10.405-8.37 15.831-17.036 15.831v-6.178c5.126 0 8.288-4.075 10.102-9.653l-14.476-37.694h8.294l9.648 27.74h.45l8.597-27.74"/></g></svg>