<svg xmlns="http://www.w3.org/2000/svg" width="457.053" height="193.95" viewBox="34.18 164.924 457.053 193.95"><path fill="#EC1C24" d="M77.88 164.924H67.73c-9.963 0-18.417 7.59-18.417 22.32 0 8.839 4.093 15.354 11.39 18.57L47.09 230.456c-.446.804 0 1.428.705 1.428h6.321c.534 0 .893-.178 1.069-.624l12.372-24.192h4.451v24.192c0 .266.268.624.623.624h5.518c.534 0 .714-.266.714-.714v-65.353c-.001-.62-.358-.893-.983-.893zm-5.873 36.429h-3.741c-5.872 0-11.564-4.286-11.564-15 0-11.159 5.334-15.715 10.765-15.715h4.54v30.715z"/><path fill="#231F20" d="M111.333 187.122h-5.522c-.444 0-.71.356-.71.623V204.8H94.867v-17.055c0-.447-.173-.623-.621-.623h-5.521c-.441 0-.708.266-.708.623v43.39c0 .441.175.71.62.71h5.609c.357 0 .621-.269.621-.71v-20.708h10.235v20.708c0 .441.266.71.71.71h5.522c.444 0 .621-.354.621-.71v-43.39a.608.608 0 0 0-.622-.623zM237.321 228.993l-.719-3.038c-.084-.269-.175-.35-.441-.35-.443 0-2.849.973-6.319.973-6.762 0-10.056-6.516-10.056-16.873 0-9.105 2.762-18.119 7.387-18.119 1.252 0 2.764.354 5.163 2.586.268.269.448.361.71.361.267 0 .535-.183.799-.63l2.409-3.927c.173-.272.264-.538.264-.808 0-.354-.357-.62-.889-.885-3.651-1.875-6.141-2.232-8.275-2.232-8.37 0-14.864 10-14.864 25.621 0 13.478 6.229 21.247 15.128 21.247 3.742 0 7.742-1.784 9.348-2.946.355-.27.44-.627.355-.98zM198.636 207.294l10.681-19.55c.173-.266.087-.623-.27-.623h-5.249c-1.513 0-2.047.539-2.577 1.693l-8.013 16.691c-.442.99-.891 1.613-1.333 1.879v-19.641c0-.356-.18-.623-.535-.623h-5.786c-.268 0-.536.266-.536.623v43.48c0 .266.18.619.536.619h5.786c.355 0 .535-.269.535-.619v-22.408c.262.175.442.441.621.805l10.142 20.883c.537 1.071 1.338 1.34 2.497 1.34h5.692c.357 0 .446-.354.266-.619l-12.457-23.93zM147.647 226.221h-1.07c-1.337 0-1.694-.535-1.694-1.603v-36.874c0-.447-.18-.623-.536-.623h-17.799c-.445 0-.705.266-.705.623v3.22c0 10.798-.626 24.725-6.32 35.257h-1.961c-.534 0-.714.266-.714.717v13.034c0 .452.356.624.626.624h4.271c.976 0 1.333-.71 1.333-1.341v-7.411h19.045v8.128a.61.61 0 0 0 .625.624h4.539c.533 0 1.069-.441 1.069-1.341v-12.316c0-.452-.268-.718-.709-.718zm-9.613 0h-12.905c4.539-7.769 6.318-16.516 6.938-27.227.178-2.32.267-4.734.267-6.249h5.701l-.001 33.476zM165.793 186.051c-9.605 0-13.879 12.142-13.879 25.352 0 13.481 6.053 21.516 14.951 21.516 4.36 0 8.188-1.693 10.146-2.946.355-.175.443-.444.355-.805l-.713-3.03c-.084-.364-.268-.532-.71-.532-.355 0-2.938.973-6.582.973-6.858 0-10.058-5.977-10.058-13.836v-2.11s3.467.417 5.516.417h12.994v-3.755c0-13.832-4.895-21.244-12.02-21.244zm-.974 19.372c-2.048 0-5.252.354-5.252.354s0-1.337.182-2.764c.794-7.59 2.667-11.425 5.782-11.425 2.846 0 4.625 3.926 5.074 10.798a57.19 57.19 0 0 1 .089 3.038l-5.875-.001zM211.273 343.456h14.68c13.437 0 24.657-7.758 24.657-26.202 0-17.842-11.043-24.188-25.439-24.188h-3.7v-27.418c0-.407-.411-.953-.953-.953h-10.023c-.824 0-1.102.408-1.102 1.089v76.294c0 .965.547 1.378 1.88 1.378zm10.198-40.808h3.424c9.007 0 14.205 6.147 14.205 14.744 0 10.648-5.338 16.652-13.669 16.652h-3.959l-.001-31.396zM193.974 264.646h-9.726c-.786 0-1.251.629-1.251 1.099v30.047h-18.042v-30.047c0-.783-.304-1.099-1.09-1.099h-9.733c-.775 0-1.246.472-1.246 1.099v76.458c0 .788.31 1.257 1.09 1.257h9.889c.628 0 1.09-.469 1.09-1.257v-36.491h18.042v36.491c0 .788.465 1.257 1.251 1.257h9.726c.782 0 1.097-.63 1.097-1.257v-76.458c0-.628-.471-1.099-1.097-1.099z"/><g fill="#231F20"><path d="M88.451 333.55h-1.887c-2.355 0-2.981-.944-2.981-2.835v-64.971c0-.783-.317-1.1-.939-1.1h-31.37c-.784 0-1.252.473-1.252 1.1v5.665c0 19.03-1.097 43.577-11.134 62.141h-3.452c-.941 0-1.256.476-1.256 1.261v22.972c0 .79.63 1.092 1.101 1.092h7.53c1.719 0 2.346-1.246 2.346-2.358V343.46h33.566v14.322c0 .622.464 1.092 1.094 1.092h7.997c.941 0 1.886-.776 1.886-2.358v-21.705c0-.786-.474-1.261-1.249-1.261zm-16.946 0H48.764C56.77 319.865 59.903 304.443 61 285.57c.312-4.092.469-8.342.469-11.014h10.036v58.994zM120.38 262.764c-16.933 0-24.461 21.394-24.461 44.668 0 23.758 10.661 37.918 26.343 37.918 7.683 0 14.431-2.992 17.875-5.189.625-.318.786-.787.625-1.414l-1.251-5.354c-.156-.627-.467-.941-1.254-.941-.623 0-5.173 1.729-11.603 1.729-12.077 0-17.721-10.531-17.721-24.386v-3.719s6.115.733 9.722.733h22.893v-6.613c0-24.376-8.623-37.432-21.168-37.432zm-1.725 34.132c-3.607 0-9.252.627-9.252.627s0-2.359.313-4.883c1.409-13.363 4.707-20.127 10.191-20.127 5.02 0 8.158 6.918 8.94 19.028.156 2.517.156 5.354.156 5.354h-10.348z"/></g><path fill="#231F20" d="M294.923 264.646h-32.911c-.781 0-1.25.472-1.25 1.099v76.458c0 .788.312 1.257 1.092 1.257h9.885c.634 0 1.089-.469 1.089-1.257v-67.577h22.097c.469 0 1.096-.295 1.096-1.101v-7.78a1.074 1.074 0 0 0-1.098-1.099zM343.708 264.646h-8.979c-.543 0-.938.304-1.127.646-.069.126-18.395 50.201-18.395 50.201L314 319.501v-53.757c0-.783-.313-1.1-1.088-1.1h-9.229c-.77 0-1.063.551-1.063 1.1v75.652c0 1.594.312 2.063 1.096 2.063h9.195c.438 0 .801-.234.974-.65.06-.138 18.834-50.586 18.834-50.586l.753-2.613v52.594c0 .788.474 1.257 1.258 1.257h8.979c.787 0 1.099-.63 1.099-2.062v-76.073c-.001-.426-.47-.68-1.1-.68z"/><path fill="#F37B20" d="M481.912 264.422h-6.323v39.428c0 7.064-3.026 11.151-11.99 13.213l-57.313 16.207s-4.882 1.319-4.882-3.106c0-3.685 4.363-4.136 5.039-4.793l-.268.101 52.299-20.785c4.279-2.398 7.788-7.914 7.788-12.268V230.25c0-9.823-9.565-6.456-11.65-5.21-2.285 1.35-60.584 34.011-60.584 34.011-4.279 2.404-7.778 7.934-7.778 12.289v61.932c0 4.346 6.207 10.141 10.211 10.168v.004h85.451c5.126.015 9.321-3.545 9.321-7.9v-63.205c0-4.36-4.195-7.917-9.321-7.917zm-41.324-4.734c4.027-2.681 7.862-1.807 8.56 1.938.688 3.762-1.639 8.535-5.677 11.215-4.02 2.678-7.861 1.816-8.555-1.941-.687-3.754 1.634-8.53 5.672-11.212z"/></svg>