<svg xmlns="http://www.w3.org/2000/svg" width="180" height="40" viewBox="0 0 14202913 3154077" shape-rendering="geometricPrecision" text-rendering="geometricPrecision" image-rendering="optimizeQuality" fill-rule="evenodd" clip-rule="evenodd"><defs><style>.fil1{fill:#898989}.fil2{fill:#e31e24}.fil0{fill:#e21a1a}</style></defs><g id="Слой_x0020_1"><g id="_1228067067424"><path class="fil0" d="M6654335 745180l639367 307557 156216 19290c52615-105835 152706-307200 258160-519362 84489-170006 427027-188267 334112-1363-78365 157690-198080 398484-280602 564489l893035-1386 389834-787044C9206707-201 8743940 22 8316220 22l-333441 23c-958033 22-1036756 158271-1120775 327316-36098 72665-180199 362565-207669 417819zM8126277 3154055l937179-716 824841-1636918-340258 1636941h835234l347500-1813474L12033714 3420l-928485 7421-1140780 1330902L10630369 5610l-946500 1498zM13215174 526872l-501480 1281528-294863 1497 796343-1283025zm-2531429 2626490h849830l573385-874886 426692 2034-306329 872852h973635L14202913 22h-1211277l-2307891 3153340z"/><path class="fil1" d="M1135684 22h1750599l2306951 1126051-1744630 2727zM3373145 45l1751448-23 2300201 1122564-1744653 2727z"/><path class="fil2" d="M0 3153362h1676995l3512306-1719955-1682337 2615z"/><path class="fil0" d="M2128094 3153362l3570085-1734148 308631-469c124476-2593 269739-2347 419852-671l987314-1542c-59813 29571-119603 59187-179416 88758-176555 355100-353334 710803-530045 1066305-116765 234870 268017 131606 333440-23 113837-228947 300339-605214 332950-669810l890979-22-459437 924283c-162720 327339-600364 327339-1053699 327339h-333418c-492450 0-958034 0-795314-327339 76777-154472 269694-542585 352305-708791L3838415 3153362H2128094z"/></g></g></svg>