<?xml version="1.0" encoding="utf-8"?>
<!-- Generator: Adobe Illustrator 17.1.0, SVG Export Plug-In . SVG Version: 6.00 Build 0)  -->
<svg version="1.2" baseProfile="tiny" id="Layer_1" xmlns="http://www.w3.org/2000/svg" xmlns:xlink="http://www.w3.org/1999/xlink"
	 x="0px" y="0px" viewBox="0 0 10.6 80" xml:space="preserve">
<path fill="#898989" d="M1.2,19.8C1,20,0.9,20,0.7,20s-0.3-0.1-0.5-0.2c-0.2-0.2-0.2-0.8,0-1L9.1,10L0.2,1.1c-0.2-0.2-0.2-0.8,0-1
	s0.8-0.2,1,0l9.3,9.4c0.2,0.2,0.2,0.8,0,1L1.2,19.8z"/>
<path fill="#EC1C25" d="M1.2,39.8C1,40,0.9,40,0.7,40s-0.3-0.1-0.5-0.2c-0.2-0.2-0.2-0.8,0-1L9.1,30l-8.9-8.9c-0.2-0.2-0.2-0.8,0-1
	c0.2-0.2,0.8-0.2,1,0l9.3,9.4c0.2,0.2,0.2,0.8,0,1L1.2,39.8z"/>
<path fill="#898989" d="M9.4,60.2C9.6,60,9.7,60,9.9,60c0.2,0,0.3,0.1,0.5,0.2c0.2,0.2,0.2,0.8,0,1L1.6,70l8.9,8.9
	c0.2,0.2,0.2,0.8,0,1c-0.2,0.2-0.8,0.2-1,0l-9.3-9.4c-0.2-0.2-0.2-0.8,0-1L9.4,60.2z"/>
<path fill="#EC1C25" d="M9.4,40.2C9.6,40,9.7,40,9.9,40c0.2,0,0.3,0.1,0.5,0.2c0.2,0.2,0.2,0.8,0,1L1.6,50l8.9,8.9
	c0.2,0.2,0.2,0.8,0,1c-0.2,0.2-0.8,0.2-1,0l-9.3-9.4c-0.2-0.2-0.2-0.8,0-1L9.4,40.2z"/>
</svg>
